<mxfile host="app.diagrams.net" modified="2021-09-23T06:43:01.735Z" agent="5.0 (Macintosh; Intel Mac OS X 10_15_7) AppleWebKit/537.36 (KHTML, like Gecko) Chrome/93.0.4577.82 Safari/537.36" etag="no8PWxEQfjrsVZu5VLXD" version="15.3.0" type="github">
  <diagram id="iYQ3iuQIOaiQyOAIRlhL" name="Page-1">
    <mxGraphModel dx="946" dy="621" grid="1" gridSize="10" guides="1" tooltips="1" connect="1" arrows="1" fold="1" page="1" pageScale="1" pageWidth="827" pageHeight="1169" math="1" shadow="0">
      <root>
        <mxCell id="0" />
        <mxCell id="1" parent="0" />
        <mxCell id="XUuw_Or5237Lbw4Zlgav-1" value="" style="ellipse;whiteSpace=wrap;html=1;aspect=fixed;dashed=1;fillColor=none;strokeColor=#FF9933;strokeWidth=2;" parent="1" vertex="1">
          <mxGeometry x="400" y="120" width="100" height="100" as="geometry" />
        </mxCell>
        <mxCell id="XUuw_Or5237Lbw4Zlgav-2" value="" style="endArrow=none;html=1;dashed=1;fillColor=#d5e8d4;strokeColor=#82b366;strokeWidth=2;targetPerimeterSpacing=9;startArrow=open;startFill=0;" parent="1" edge="1">
          <mxGeometry width="50" height="50" relative="1" as="geometry">
            <mxPoint x="450" y="120" as="sourcePoint" />
            <mxPoint x="280" y="120" as="targetPoint" />
          </mxGeometry>
        </mxCell>
        <mxCell id="XUuw_Or5237Lbw4Zlgav-3" value="" style="shape=waypoint;sketch=0;fillStyle=solid;size=6;pointerEvents=1;points=[];fillColor=#f8cecc;resizable=0;rotatable=0;perimeter=centerPerimeter;snapToPoint=1;strokeColor=#b85450;" parent="1" vertex="1">
          <mxGeometry x="480" y="140" width="40" height="40" as="geometry" />
        </mxCell>
        <mxCell id="XUuw_Or5237Lbw4Zlgav-4" value="" style="shape=waypoint;sketch=0;fillStyle=solid;size=6;pointerEvents=1;points=[];fillColor=#f8cecc;resizable=0;rotatable=0;perimeter=centerPerimeter;snapToPoint=1;strokeColor=#b85450;" parent="1" vertex="1">
          <mxGeometry x="430" y="100" width="40" height="40" as="geometry" />
        </mxCell>
        <mxCell id="XUuw_Or5237Lbw4Zlgav-5" value="`P`" style="text;html=1;resizable=0;autosize=1;align=center;verticalAlign=middle;points=[];fillColor=none;strokeColor=none;rounded=0;" parent="1" vertex="1">
          <mxGeometry x="475" y="150" width="30" height="20" as="geometry" />
        </mxCell>
        <mxCell id="XUuw_Or5237Lbw4Zlgav-6" value="`A`" style="text;html=1;resizable=0;autosize=1;align=center;verticalAlign=middle;points=[];fillColor=none;strokeColor=none;rounded=0;" parent="1" vertex="1">
          <mxGeometry x="435" y="120" width="30" height="20" as="geometry" />
        </mxCell>
        <mxCell id="UcCmhgu8jKrKr3_td4Et-1" value="" style="shape=curlyBracket;whiteSpace=wrap;html=1;rounded=1;flipH=1;rotation=-90;fillColor=none;strokeColor=#E6E6E6;fontColor=#333333;" parent="1" vertex="1">
          <mxGeometry x="355" y="5" width="20" height="170" as="geometry" />
        </mxCell>
        <mxCell id="UcCmhgu8jKrKr3_td4Et-2" value="" style="shape=curlyBracket;whiteSpace=wrap;html=1;rounded=1;rotation=126;strokeColor=#E6E6E6;" parent="1" vertex="1">
          <mxGeometry x="480" y="80" width="20" height="70" as="geometry" />
        </mxCell>
        <mxCell id="UcCmhgu8jKrKr3_td4Et-4" value="`x`" style="text;html=1;resizable=0;autosize=1;align=center;verticalAlign=middle;points=[];fillColor=none;strokeColor=none;rounded=0;" parent="1" vertex="1">
          <mxGeometry x="350" y="60" width="30" height="20" as="geometry" />
        </mxCell>
        <mxCell id="UcCmhgu8jKrKr3_td4Et-5" value="`y`" style="text;html=1;resizable=0;autosize=1;align=center;verticalAlign=middle;points=[];fillColor=none;strokeColor=none;rounded=0;" parent="1" vertex="1">
          <mxGeometry x="485" y="90" width="30" height="20" as="geometry" />
        </mxCell>
      </root>
    </mxGraphModel>
  </diagram>
</mxfile>
